<svg xmlns="http://www.w3.org/2000/svg" id="Layer_3" enable-background="new 0 0 64 64" height="512" viewBox="0 0 64 64" width="512">
    <g>
        <path d="m43.439 45.668-7.995-1.599-5.365-4.471c2.94-1.743 4.921-4.94 4.921-8.598 1.654 0 3-1.346 3-3 0-1.484-1.085-2.71-2.501-2.95l.57-1.322c1.028-2.381.844-5.131-.49-7.355-.846-1.41-2.083-2.515-3.579-3.195l-2.791-1.271c-3.295-1.499-7.335-1.062-10.231 1.11l-1.578 1.183.002.003c-1.56.407-2.937 1.411-3.783 2.821-1.101 1.836-1.187 4.075-.23 5.99l1.022 2.045c-1.373.275-2.411 1.488-2.411 2.941 0 1.654 1.346 3 3 3 0 3.658 1.981 6.855 4.92 8.598l-5.365 4.471-7.995 1.599c-1.344.269-2.566.923-3.535 1.892-1.306 1.306-2.025 3.044-2.025 4.891v9.549c0 .552.448 1 1 1h46c.552 0 1-.448 1-1v-9.549c0-1.848-.719-3.585-2.026-4.891-.969-.969-2.191-1.623-3.535-1.892zm-17.439 1.332v4h-2v-4h.414 1.172zm2-4.414c0 .635-.258 1.258-.707 1.707s-1.072.707-1.707.707h-1.172c-.635 0-1.258-.258-1.707-.707s-.707-1.072-.707-1.707v-2.047c.948.299 1.955.461 3 .461s2.052-.162 3-.461zm-4 10.414h2v2h-2zm4.707-7.293c.834-.833 1.293-1.942 1.293-3.121v-.451l3.802 3.168-1.272 3.181-3.976-2.651c.048-.045.105-.078.153-.126zm7.293-17.707c0 .551-.449 1-1 1v-2c.551 0 1 .449 1 1zm-20.666-9.947c.76-1.266 2.15-2.053 3.626-2.053 1.568 0 3.023.779 3.894 2.083l.314.471 1.664-1.109-.314-.471c-.902-1.352-2.247-2.302-3.772-2.724 2.263-1.404 5.197-1.632 7.633-.523l2.791 1.271c1.125.512 2.056 1.343 2.693 2.404 1.004 1.673 1.142 3.742.369 5.534l-.067.156-1.27-2.54c-.133-.265-.376-.458-.665-.526-.287-.069-.592-.005-.83.173l-1.6 1.2c-1.376 1.033-3.081 1.601-4.8 1.601s-3.424-.568-4.8-1.6l-1.6-1.2c-.237-.179-.543-.243-.83-.173-.289.068-.532.261-.665.526l-1.355 2.711-.572-1.144c-.65-1.3-.592-2.821.156-4.067zm-1.334 9.947c0-.551.449-1 1-1v2c-.551 0-1-.449-1-1zm3 3v-5.764l1.358-2.717.642.481c1.72 1.29 3.851 2 6 2s4.28-.71 6-2l.642-.481 1.358 2.717v5.764c0 4.411-3.589 8-8 8s-8-3.589-8-8zm3 11.135v.451c0 1.179.459 2.288 1.293 3.121.048.048.105.081.154.127l-3.976 2.651-1.272-3.181zm27 18.865h-44v-8.549c0-1.313.511-2.548 1.44-3.477.688-.688 1.558-1.154 2.513-1.345l7.427-1.485 1.691 4.228c.112.28.344.494.632.583.097.03.197.045.297.045.195 0 .389-.057.555-.168l4.445-2.964v8.132c0 .552.448 1 1 1h4c.552 0 1-.448 1-1v-8.132l4.445 2.964c.166.111.36.168.555.168.1 0 .2-.015.296-.045.288-.089.52-.304.632-.583l1.691-4.228 7.427 1.485c.956.191 1.825.657 2.513 1.345.929.929 1.44 2.164 1.44 3.477v8.549z"/>
        <path d="m44 11h2v2h-2z"/>
        <path d="m48 11h2v2h-2z"/>
        <path d="m52 11h2v2h-2z"/>
        <path d="m56 11h2v2h-2z"/>
        <path d="m58 1h-14c-2.757 0-5 2.243-5 5v12c0 2.757 2.243 5 5 5h1.819l-.806 4.835c-.071.429.142.855.529 1.054.146.075.302.111.458.111.259 0 .516-.101.708-.293l5.706-5.707h5.586c2.757 0 5-2.243 5-5v-12c0-2.757-2.243-5-5-5zm3 17c0 1.654-1.346 3-3 3h-6c-.265 0-.52.105-.707.293l-3.793 3.793.487-2.922c.048-.29-.033-.586-.223-.811-.191-.224-.47-.353-.764-.353h-3c-1.654 0-3-1.346-3-3v-12c0-1.654 1.346-3 3-3h14c1.654 0 3 1.346 3 3z"/>
    </g>
</svg>